# xmcd
#
# Track frame offsets:
#	150
#	16693
#	29965
#	48594
#	65610
#	83013
#	96628
#	111322
#	125270
#	142392
#	156464
#	170682
#	184444
#	198332
#	211122
#	229294
#	248687
#	262446
#
# Disc length: 3716 seconds
#
# Revision: 1
# Processed by: cddbd v1.5.2PL0 Copyright (c) Steve Scherf et al.
# Submitted via: audiograbber 1.83.01
#
DISCID=1d0e8212
DTITLE=Various Artist - Promo Only Country December 2014
DYEAR=2014
DGENRE=Country
TTITLE0=Florida Georgia Line - Dirt (Acoustic Remix)
TTITLE1=Kenny Chesney - Til It's Gone (Radio Version)
TTITLE2=Kenny Chesney - Til It's Gone (Album Version)
TTITLE3=Carrie Underwood - Something In The Water (Radio Edit)
TTITLE4=Carrie Underwood - Something In The Water (Album Version)
TTITLE5=Lady Antebellum - Freestyle
TTITLE6=Toby Keith - Drunk Americans (Clean Edit)
TTITLE7=Billy Currington - Don't It
TTITLE8=Justin Moore - This Kind Of Town
TTITLE9=Dustin Lynch - Hell Of A Night
TTITLE10=Cole Swindell - Ain't Worth The Whiskey (Clean Edit)
TTITLE11=Railers - Kinda Dig The Feeling
TTITLE12=Band Perry - Gentle On My Mind
TTITLE13=Josh Abbott Band - Hangin' Around
TTITLE14=Eric Paslay - She Don't Love You (Radio Edit)
TTITLE15=Eric Paslay - She Don't Love You (Album Version)
TTITLE16=Smith 'N Western - Fallen Angels
TTITLE17=Brad Lee Schroeder - Run Devil Run
EXTD=
EXTT0=
EXTT1=
EXTT2=
EXTT3=
EXTT4=
EXTT5=
EXTT6=
EXTT7=
EXTT8=
EXTT9=
EXTT10=
EXTT11=
EXTT12=
EXTT13=
EXTT14=
EXTT15=
EXTT16=
EXTT17=
PLAYORDER=
